<svg width="242" height="176" viewBox="0 0 242 176" fill="none" xmlns="http://www.w3.org/2000/svg">
<path fill-rule="evenodd" clip-rule="evenodd" d="M88.784 87.2877L86.9036 93.1231H90.6555L88.784 87.2877ZM57.5225 77.716C61.0571 77.6598 65.1366 78.6782 65.439 83.0465C65.5956 85.3085 64.3028 87.7172 62.0709 88.3496C66.0863 89.4472 66.6668 95.1877 64.5789 97.2846C61.726 100.15 57.2189 100.023 53.6577 100.141H47.0166L47.0786 77.7163L57.5225 77.716ZM53.4188 96.0355H56.0642C57.2896 96.0355 58.1764 95.8025 58.736 95.3432C59.2901 94.8835 59.5443 94.1738 59.4928 93.2022C59.4464 92.3295 59.165 91.6721 58.6438 91.2356C58.1225 90.799 57.3603 90.5779 56.3639 90.5779H53.2604L53.2643 92.4861C53.2655 92.7249 53.2688 93.0042 53.2802 93.3242C53.2915 93.6442 53.3185 94.1504 53.355 94.8428L53.4188 96.0355ZM53.217 86.6644H55.1301C56.7456 86.6644 57.9016 86.4599 58.5985 86.0575C59.2886 85.6547 59.6084 84.9995 59.5509 84.0924C59.4958 83.2269 59.188 82.62 58.6273 82.2714C58.0668 81.9292 57.0923 81.7546 55.71 81.7546H53.2373C53.2311 81.8747 53.2296 82.1875 53.2269 82.704C53.2242 83.2208 53.2251 83.6717 53.2212 84.0619L53.217 86.6644ZM158.269 81.7561C162.02 81.5246 164.255 83.5734 164.384 86.1469C164.51 88.6353 163.524 90.3668 160.626 91.5063L165.261 100.144H159.951L154.796 89.755L156.946 89.7447C158.155 89.7386 159.1 88.6827 159.141 87.4103C159.201 85.5592 158.007 84.8796 156.339 84.8811L154.513 84.8827L154.542 100.145H149.571L149.579 81.7564L158.269 81.7561ZM111.546 81.8644H116.528V100.131H111.546V81.8644ZM118.009 81.8644H122.992V97.0522H129.152V100.08L118.009 100.131V81.8644ZM165.496 100.192L165.481 81.4872H178.284L178.296 84.6497L170.583 84.6125L170.576 88.7807L177.565 88.7439L177.514 91.9699L170.569 91.969L170.528 96.8541L178.257 96.8809L178.27 100.192H165.496ZM178.997 81.4632H184.046L187.302 93.0745L191.487 81.4632H196.537L189.959 100.163H184.312L178.997 81.4632ZM136.571 87.6707H138.406C139.851 87.6707 140.863 87.3999 141.449 86.8493C142.032 86.3012 142.324 85.5954 142.324 84.743C142.324 83.9092 142.067 83.2014 141.562 82.6246C141.057 82.0469 140.105 81.7537 138.705 81.7537H136.571V87.6707ZM130.444 77.8596H140.388C142.624 77.8596 145.321 78.6195 146.581 79.666C148.196 81.0093 148.551 82.6009 148.634 84.1645C148.88 88.8354 145.195 91.2365 140.286 91.2365H136.571V100.138H130.444V77.8596ZM97.117 96.9357L102.948 96.935C103.929 96.935 105.328 96.2056 104.777 94.6304C104.616 94.1717 104.218 93.6692 103.407 93.2229C102.364 92.6489 100.771 92.1232 99.5166 91.4321C98.3484 90.7884 97.2011 89.6887 96.7371 88.8084C95.8706 87.1642 95.9697 84.7181 97.4861 83.2701C98.4589 82.3417 100.175 81.7814 101.961 81.8851L109.77 81.9006L109.751 84.9961L103.204 85.025C101.885 85.0305 100.97 86.4225 101.712 87.3035C103.161 89.0243 106.507 89.7337 107.947 90.6914C110.537 92.4125 111.083 95.9564 109.231 98.1999C107.941 99.7626 105.677 100.077 103.281 100.086L95.5209 100.115L95.5197 100.105H92.8064L91.7049 96.0629H86.1599L84.4587 100.105L76.9623 100.076L71.8741 89.755L74.025 89.7447C75.2336 89.7386 76.1785 88.8853 76.2195 87.6129C76.2797 85.7621 75.0857 84.8796 73.4178 84.8811L71.5915 84.8827L71.6206 100.145H66.6492L66.6572 81.7564H75.348C79.099 81.5249 81.3334 83.5734 81.4627 86.1472C81.5882 88.6356 80.5355 90.5018 77.638 91.6417L80.5259 96.8642L86.0356 81.8608L92.198 81.8744L97.117 96.9357Z" fill="#211E1E"/>
</svg>
